# AST/ASF file generated using VICON BodyLanguage
# -----------------------------------------------
:version 1.10
:name VICON
:units
  mass 1.0
  length 0.45
  angle deg
:documentation
   .ast/.asf automatically generated from VICON data using
   VICON BodyBuilder and BodyLanguage model FoxedUp or BRILLIANT.MOD
:root
   order TX TY TZ RX RY RZ
   axis XYZ
   position 0 0 0  
   orientation 0 0 0 
:bonedata
  begin
     id 1 
     name lhipjoint
     direction 0.734343 -0.627749 0.258209 
     length 2.5437 
     axis 0 0 0  XYZ
  end
  begin
     id 2 
     name lfemur
     direction 0.34202 -0.939693 0  
     length 6.7391  
     axis 0 0 20  XYZ
    dof rx ry rz
    limits (-160.0 20.0)
           (-70.0 70.0)
           (-60.0 70.0)
  end
  begin
     id 3 
     name ltibia
     direction 0.34202 -0.939693 0   
     length 7.21536   
     axis 0 0 20   XYZ
    dof rx
    limits (-10.0 170.0)
  end
  begin
     id 4 
     name lfoot
     direction 0.0489572 -0.134509 0.989702   
     length 1.61313   
     axis -90 7.62852e-016 20   XYZ
    dof rx rz
    limits (-45.0 90.0)
           (-70.0 20.0)
  end
  begin
     id 5 
     name ltoes
     direction 1.53451e-011 -4.21692e-011 1   
     length 0.823104   
     axis -90 7.62852e-016 20   XYZ
    dof rx
    limits (-90.0 20.0)
  end
  begin
     id 6 
     name rhipjoint
     direction -0.746398 -0.615468 0.253157   
     length 2.59446  
     axis 0 0 0  XYZ 
  end
  begin
     id 7 
     name rfemur
     direction -0.34202 -0.939693 0   
     length 6.7075   
     axis 0 0 -20   XYZ
    dof rx ry rz
    limits (-160.0 20.0)
           (-70.0 70.0)
           (-70.0 60.0)
  end
  begin
     id 8 
     name rtibia
     direction -0.34202 -0.939693 0   
     length 7.27262   
     axis 0 0 -20   XYZ
    dof rx
    limits (-10.0 170.0)
 end
 begin
     id 9 
     name rfoot
     direction -0.0455203 -0.125066 0.991104   
     length 1.91095  
     axis -90 -7.62852e-016 -20   XYZ
    dof rx rz
    limits (-45.0 90.0)
           (-20.0 70.0)
  end
  begin
     id 10 
     name rtoes
     direction -1.53601e-011 -4.21913e-011 1   
     length 0.969037   
     axis -90 -7.62852e-016 -20   XYZ
    dof rx
    limits (-90.0 20.0)
  end
  begin
     id 11 
     name lowerback
     direction 0.0181546 0.999122 -0.0377542   
     length 1.99916   
     axis 0 0 0   XYZ
    dof rx ry rz
    limits (-20.0 45.0)
           (-30.0 30.0)
           (-30.0 30.0)
  end
  begin
     id 12 
     name upperback
     direction 0.0203486 0.99589 0.0882534   
     length 1.951   
     axis 0 0 0   XYZ
    dof rx ry rz
    limits (-20.0 45.0)
           (-30.0 30.0)
           (-30.0 30.0)
  end
  begin
     id 13 
     name thorax
     direction 0.0131685 0.994241 0.106355   
     length 1.97461   
     axis 0 0 0   XYZ
    dof rx ry rz
    limits (-20.0 45.0)
           (-30.0 30.0)
           (-30.0 30.0)
  end
  begin
     id 14 
     name lowerneck
     direction -0.0281395 0.999325 0.023617   
     length 1.7959   
     axis 0 0 0   XYZ
    dof rx ry rz
    limits (-20.0 45.0)
           (-30.0 30.0)
           (-30.0 30.0)
  end
  begin
     id 15 
     name upperneck
     direction 0.0288721 0.991984 -0.123019   
     length 1.79917   
     axis 0 0 0   XYZ
    dof rx ry rz
    limits (-20.0 45.0)
           (-30.0 30.0)
           (-30.0 30.0)
  end
  begin
     id 16
     name head
     direction 0.0133797 0.998944 -0.0439492  
     length 1.80902  
     axis 0 0 0   XYZ
    dof rx ry rz
    limits (-20.0 45.0)
           (-30.0 30.0)
           (-30.0 30.0)
  end
  begin
     id 17 
     name lclavicle
     direction 0.919195 0.377107 0.113449  
     length 3.17815  
     axis 0 0 0   XYZ
    dof ry rz
    limits (-20.0 10.0)
           (0.0 20.0)
  end
  begin
     id 18 
     name lhumerus
     direction 1 -4.48959e-011 2.13129e-027   
     length 4.84137   
     axis 180 -30 -90   XYZ
    dof rx ry rz
    limits (-60.0 90.0)
           (-90.0 90.0)
           (-90.0 90.0)
  end
  begin
     id 19
     name lradius
     direction 1 -4.48957e-011 -6.30627e-028   
     length 3.2452   
     axis 180 -30 -90   XYZ
    dof rx
    limits (-10.0 170.0)
  end
  begin
     id 20
     name lwrist
     direction 1 -4.4901e-011 9.13299e-027   
     length 1.6226   
     axis -6.84618e-015 90 90   XYZ
    dof ry
    limits (-180.0 0.0)
 end
  begin
     id 21 
     name lhand
     direction 1 -4.48816e-011 1.82293e-026   
     length 0.521221   
     axis -1.16502e-014 90 90   XYZ
    dof rx rz
    limits (-90.0 90.0)
           (-45.0 45.0)
  end
  begin
     id 22 
     name lfingers
     direction 1 -4.49108e-011 3.65687e-026   
     length 0.420221   
     axis -2.33008e-014 90 90   XYZ
    dof rx
    limits (0.0 90.0)
  end
  begin
     id 23
     name lthumb
     direction 0.707107 -6.34943e-011 0.707107   
     length 0.603356   
     axis -90 45 5.69224e-014   XYZ
    dof rx rz
    limits (-45.0 45.0)
           (-45.0 45.0)
  end
  begin
     id 24 
     name rclavicle
     direction -0.90847 0.38596 0.160368   
     length 3.12973  
     axis 0 0 0   XYZ 
    dof ry rz
    limits (-10.0 20.0)
           (-20.0 0.0)
  end
  begin
     id 25 
     name rhumerus
     direction -1 -4.48974e-011 4.47268e-028  
     length 4.72284   
     axis 180 30 90   XYZ
    dof rx ry rz
    limits (-90.0 60.0)
           (-90.0 90.0)
           (-90.0 90.0)
  end
  begin
     id 26 
     name rradius
     direction -1 -4.48969e-011 3.43203e-027   
     length 3.23459   
     axis 180 30 90   XYZ
    dof rx
    limits (-10.0 170.0)
  end
  begin
     id 27 
     name rwrist
     direction -1 -4.48969e-011 9.12911e-027   
     length 1.6173   
     axis -6.84618e-015 -90 -90   XYZ
    dof ry
    limits (-180.0 0.0)
  end
  begin
     id 28
     name rhand
     direction -1 -4.49194e-011 1.83006e-026   
     length 0.307416   
     axis -1.16502e-014 -90 -90   XYZ
    dof rx rz
    limits (-90.0 90.0)
           (-45.0 45.0)
  end
  begin
     id 29
     name rfingers
     direction -1 -4.48423e-011 3.63103e-026   
     length 0.247847   
     axis -2.33008e-014 -90 -90   XYZ
    dof rx
    limits (0.0 90.0)
  end
  begin
     id 30
     name rthumb
     direction -0.707107 -6.34802e-011 0.707107   
     length 0.35586   
     axis -90 -45 -5.69224e-014   XYZ
    dof rx rz
    limits (-45.0 45.0)
           (-45.0 45.0)
  end
:hierarchy
  begin
    root lhipjoint rhipjoint lowerback
    lhipjoint lfemur
    lfemur ltibia
    ltibia lfoot
    lfoot ltoes
    rhipjoint rfemur
    rfemur rtibia
    rtibia rfoot
    rfoot rtoes
    lowerback upperback
    upperback thorax
    thorax lowerneck lclavicle rclavicle
    lowerneck upperneck
    upperneck head
    lclavicle lhumerus
    lhumerus lradius
    lradius lwrist
    lwrist lhand lthumb
    lhand lfingers
    rclavicle rhumerus
    rhumerus rradius
    rradius rwrist
    rwrist rhand rthumb
    rhand rfingers
  end

#!OML:ASF H:\Terrain\Patient Classification 1\Animal1\Tuesday\Animal1.ASF
:FULLY-SPECIFIED
:DEGREES
408
root 14.4299 16.1884 -9.35912 -177.589 -21.4573 -168.234
lowerback 16.1131 -1.78538 -3.34117
upperback 0.346611 -3.07684 0.134688
thorax -8.49521 -1.38443 2.75157
lowerneck -8.00041 -1.88845 -8.78697
upperneck -7.5856 -2.37977 19.6825
head -0.437678 -1.60234 7.48184
rclavicle 7.95139e-016 -9.54166e-015
rhumerus -13.5319 31.7728 25.6616
rradius 20.0378
rwrist -17.8223
rhand -3.12708 0.688999
rfingers 7.12502
rthumb 22.592 -28.009
lclavicle 7.95139e-016 -9.54166e-015
lhumerus -25.8222 4.05237 -16.3782
lradius 23.0741
lwrist -22.5231
lhand 2.64108 73.8589
lfingers 7.12502
lthumb -151.882 78.229
rfemur -76.9783 -1.57542 14.273
rtibia 83.1618
rfoot -10.9262 -2.10794
rtoes -8.79537
lfemur -22.7169 -6.36723 -19.5185
ltibia 42.1655
lfoot -18.294 -8.14349
ltoes 7.98666
409
root 14.4532 16.1727 -9.42279 -177.8 -22.9812 -168.171
lowerback 16.0533 -1.92125 -3.38352
upperback 0.429298 -3.25875 0.168279
thorax -8.35497 -1.47517 2.84644
lowerneck -7.89442 -1.84566 -8.69973
upperneck -7.74941 -2.29955 19.5487
head -0.519052 -1.56954 7.42898
rclavicle -5.12864e-014 -2.38542e-014
rhumerus -12.9671 31.7251 26.5666
rradius 20.1024
rwrist -18.8095
rhand -4.95295 -0.205012
rfingers 7.12502
rthumb 20.8386 -29.1059
lclavicle -5.12864e-014 -2.38542e-014
lhumerus -24.6498 3.4415 -16.7932
lradius 23.0438
lwrist -23.2039
lhand 2.90817 73.5644
lfingers 7.12502
lthumb -151.627 78.5657
rfemur -75.8506 -1.03551 14.4051
rtibia 81.2612
rfoot -11.441 -1.75184
rtoes -5.1766
lfemur -22.7312 -7.07788 -19.3457
ltibia 42.5086
lfoot -18.734 -8.0644
ltoes 3.02694
410
root 14.4782 16.1602 -9.4885 -177.946 -24.4559 -168.001
lowerback 15.9682 -2.02023 -3.45653
upperback 0.448272 -3.38686 0.282056
thorax -8.26635 -1.5334 3.03264
lowerneck -7.77084 -1.75197 -8.68878
upperneck -8.1008 -2.13422 19.4942
head -0.666088 -1.50838 7.42227
rclavicle -4.01545e-014 -2.06736e-014
rhumerus -12.4105 30.6148 27.4684
rradius 20.1275
rwrist -18.492
rhand -5.49087 -2.3325
rfingers 7.12502
rthumb 20.3217 -31.2893
lclavicle -4.01545e-014 -2.06736e-014
lhumerus -23.5211 3.61342 -17.244
lradius 22.896
lwrist -24.4103
lhand 3.44006 73.2797
lfingers 7.12502
lthumb -151.119 78.9361
rfemur -74.8061 -0.271927 14.6031
rtibia 79.2946
rfoot -11.6706 -1.91514
rtoes -3.19845
lfemur -22.9242 -7.82191 -18.9592
ltibia 42.8678
lfoot -18.5167 -9.51686
ltoes 7.3172
411
root 14.497 16.1437 -9.56047 -178.089 -25.8437 -168.083
lowerback 15.9298 -2.07479 -3.62419
upperback 0.487856 -3.49551 0.193629
thorax -8.18991 -1.58419 3.05253
lowerneck -7.6356 -1.64964 -8.49324
upperneck -8.47043 -1.98226 19.5141
head -0.818657 -1.46857 7.40691
rclavicle 9.85972e-014 -3.33958e-014
rhumerus -12.0863 28.9322 27.9012
rradius 20.2304
rwrist -17.61
rhand -4.78222 -2.90789
rfingers 7.12502
rthumb 21.0026 -31.7907
lclavicle 9.85972e-014 -3.33958e-014
lhumerus -22.2908 3.81232 -17.7638
lradius 22.8581
lwrist -25.3045
lhand 3.66527 73.0399
lfingers 7.12502
lthumb -150.904 79.2129
rfemur -73.7686 0.480615 14.6669
rtibia 77.2672
rfoot -11.4235 -3.18682
rtoes -7.52116
lfemur -22.931 -8.50963 -18.8806
ltibia 43.2059
lfoot -18.3666 -10.9291
ltoes 11.7626
412
root 14.5102 16.1185 -9.63779 -178.092 -27.2253 -168.458
lowerback 15.8324 -2.13223 -4.01188
upperback 0.537444 -3.65322 0.0214211
thorax -8.05815 -1.65468 3.11324
lowerneck -7.67452 -1.53396 -8.08282
upperneck -8.56737 -1.84106 19.2565
head -0.872295 -1.40711 7.25525
rclavicle 2.10712e-014 -3.18055e-015
rhumerus -11.853 28.1353 27.9723
rradius 20.4053
rwrist -17.1865
rhand -4.97424 -2.06394
rfingers 7.12502
rthumb 20.8182 -30.9671
lclavicle 2.10712e-014 -3.18055e-015
lhumerus -21.1513 4.6051 -18.3103
lradius 22.8133
lwrist -26.5239
lhand 3.67434 72.5575
lfingers 7.12502
lthumb -150.895 79.6968
rfemur -72.8222 0.910424 14.5965
rtibia 75.3078
rfoot -11.4289 -4.43271
rtoes -10.2103
lfemur -22.8089 -9.10534 -19.1866
ltibia 43.4443
lfoot -18.6852 -11.398
ltoes 11.1672
413
root 14.5228 16.1006 -9.71214 -178.197 -28.6593 -168.536
lowerback 15.7602 -2.2375 -4.18265
upperback 0.590801 -3.82319 -0.0263268
thorax -7.93923 -1.73638 3.18831
lowerneck -7.73725 -1.39827 -7.76026
upperneck -8.70394 -1.66185 19.0022
head -0.93662 -1.3252 7.12234
rclavicle -8.74653e-015 -1.59028e-014
rhumerus -11.639 26.8932 27.9816
rradius 20.35
rwrist -16.0091
rhand -5.99558 -0.519746
rfingers 7.12502
rthumb 19.8366 -29.5275
lclavicle -8.74653e-015 -1.59028e-014
lhumerus -20.2024 5.66788 -18.7225
lradius 22.7338
lwrist -27.7309
lhand 4.06113 72.0684
lfingers 7.12502
lthumb -150.526 80.2504
rfemur -71.7256 1.40288 14.7604
rtibia 73.3174
rfoot -11.5024 -5.70377
rtoes -10.8141
lfemur -22.7158 -9.65439 -19.1848
ltibia 43.5905
lfoot -18.9255 -11.9334
ltoes 11.5208
